<?xml version="1.0" standalone="no"?>
<!DOCTYPE svg PUBLIC "-//W3C//DTD SVG 20010904//EN"
 "http://www.w3.org/TR/2001/REC-SVG-20010904/DTD/svg10.dtd">
<svg version="1.0" xmlns="http://www.w3.org/2000/svg"
 width="1181.000000pt" height="236.000000pt" viewBox="0 0 1181.000000 236.000000"
 preserveAspectRatio="xMidYMid meet">

<g transform="translate(0.000000,236.000000) scale(0.100000,-0.100000)"
fill="#000000" stroke="none">
<path d="M1910 2071 c-162 -44 -301 -123 -425 -242 -185 -178 -280 -434 -256
-691 15 -155 52 -281 100 -338 24 -29 32 -33 49 -25 20 9 299 277 712 681 102
100 203 197 225 215 75 63 255 242 255 254 0 36 -141 110 -277 144 -105 27
-286 28 -383 2z"/>
<path d="M3505 2068 c-63 -23 -105 -88 -105 -161 0 -56 45 -122 98 -144 48
-20 134 -13 169 13 53 40 68 70 68 139 0 68 -15 99 -66 137 -31 23 -122 32
-164 16z"/>
<path d="M4771 2011 c-14 -25 -14 -1570 -1 -1591 7 -12 33 -15 127 -15 l118 0
5 355 c6 406 5 404 96 496 58 59 128 83 244 85 105 2 151 -20 211 -101 58 -79
59 -90 59 -463 0 -269 3 -347 13 -361 12 -16 26 -18 115 -14 64 2 106 8 114
16 10 10 14 87 16 310 5 428 -14 555 -96 673 -139 199 -469 227 -692 60 -30
-23 -57 -41 -61 -41 -15 0 -19 59 -19 312 0 146 -3 273 -6 282 -5 13 -25 16
-120 16 -101 0 -114 -2 -123 -19z"/>
<path d="M3974 1859 c-10 -16 -5 -1093 5 -1182 19 -169 126 -273 307 -298 108
-15 276 7 288 37 10 26 -26 173 -43 174 -3 1 -49 2 -101 3 -136 3 -171 30
-197 151 -17 81 -18 582 -1 592 6 4 77 9 157 12 80 2 151 8 156 14 11 10 12
108 2 150 -6 24 -13 27 -63 34 -31 3 -94 4 -140 1 -120 -7 -118 -9 -122 160
-2 76 -8 144 -14 150 -14 17 -224 18 -234 2z"/>
<path d="M2680 1813 c0 -4 14 -21 30 -37 74 -76 99 -109 132 -178 39 -80 73
-155 81 -178 4 -11 6 -9 6 5 1 26 -16 91 -35 132 -8 17 -14 36 -14 42 0 6 -4
11 -10 11 -5 0 -10 5 -10 10 0 30 -88 144 -136 176 -37 25 -44 28 -44 17z"/>
<path d="M6542 1550 c-138 -33 -221 -85 -339 -215 -27 -29 -84 -157 -99 -221
-18 -79 -21 -261 -5 -277 6 -6 11 -18 11 -26 0 -9 7 -29 15 -45 8 -15 12 -33
8 -39 -4 -7 0 -8 11 -4 14 6 17 3 12 -8 -13 -34 76 -155 114 -155 5 0 9 -4 7
-8 -1 -5 13 -23 31 -41 17 -18 32 -30 32 -26 0 3 15 -5 33 -18 17 -13 45 -28
62 -31 16 -4 32 -12 36 -17 3 -6 47 -15 97 -21 51 -7 92 -15 92 -20 0 -9 118
0 208 17 31 5 40 11 30 17 -8 5 -3 6 14 2 17 -4 35 0 50 10 12 9 28 16 36 16
7 0 39 18 71 40 89 59 92 86 23 161 l-48 52 -62 -42 c-76 -52 -142 -71 -247
-72 -176 -1 -298 61 -364 186 -36 68 -21 149 24 131 8 -3 15 -2 15 2 0 4 187
7 415 6 328 0 418 3 426 13 12 13 13 155 3 202 -25 111 -89 235 -160 305 -120
121 -355 174 -552 126z m303 -180 c29 -2 29 -2 5 -9 -25 -7 -24 -8 8 -15 17
-4 32 -11 32 -15 0 -4 11 -14 25 -21 13 -7 22 -17 19 -22 -3 -4 -1 -8 4 -8 13
0 70 -113 78 -155 12 -66 17 -65 -332 -65 -308 0 -313 0 -324 21 -14 26 8 101
48 163 36 55 40 58 104 100 62 39 117 47 238 34 36 -4 79 -8 95 -8z m12 -956
c-3 -3 -12 -4 -19 -1 -8 3 -5 6 6 6 11 1 17 -2 13 -5z"/>
<path d="M7987 1550 c-76 -20 -164 -74 -198 -120 -36 -48 -55 -40 -62 26 -9
83 -12 85 -136 82 l-106 -3 -3 -59 c-2 -41 1 -62 10 -67 10 -7 10 -9 1 -9 -7
0 -13 -11 -13 -24 0 -13 6 -27 13 -30 10 -5 10 -7 0 -12 -9 -4 -13 -28 -13
-70 0 -56 2 -63 18 -58 16 5 16 5 0 -9 -22 -17 -24 -63 -3 -71 8 -3 15 -10 15
-16 0 -5 -7 -10 -15 -10 -21 0 -19 -13 5 -28 11 -7 20 -19 20 -28 0 -13 -3
-14 -14 -5 -18 15 -30 -11 -13 -28 8 -8 8 -11 -2 -11 -10 0 -12 -37 -7 -182 3
-101 7 -208 8 -238 0 -30 -2 -76 -6 -102 -6 -41 -4 -48 13 -58 13 -7 34 -7 61
-1 23 5 38 5 34 0 -7 -13 10 -11 23 2 8 8 13 8 17 0 4 -6 25 -11 47 -11 l39 0
1 273 c0 149 2 279 3 287 2 8 6 53 10 99 5 65 13 96 34 133 15 26 30 48 35 48
4 0 7 9 7 20 0 13 5 17 14 14 11 -4 13 0 9 15 -4 15 -9 19 -17 11 -8 -6 -16
-6 -23 1 -8 8 -13 8 -18 0 -3 -6 1 -14 9 -17 18 -7 22 -34 6 -34 -5 0 -10 7
-10 15 0 8 -7 15 -15 15 -8 0 -15 -7 -15 -15 0 -8 7 -15 15 -15 8 0 15 -7 15
-15 0 -8 -6 -15 -14 -15 -8 0 -16 7 -20 15 -3 8 -12 15 -21 15 -8 0 -15 9 -15
19 0 12 -9 21 -25 25 -33 8 -45 1 -40 -24 6 -32 15 -41 35 -35 12 4 27 -2 39
-14 12 -12 17 -21 12 -21 -5 0 -14 7 -21 15 -7 8 -16 15 -21 15 -5 0 -9 -7 -9
-15 0 -23 -18 -18 -45 13 -26 29 -32 52 -14 52 8 0 7 5 -1 16 -11 13 -10 16 8
21 27 7 28 15 2 38 -11 10 -18 21 -15 24 7 6 55 -48 55 -61 0 -4 9 -8 20 -8
18 0 19 3 10 20 -10 19 -9 20 15 14 20 -5 30 -1 46 20 11 14 35 28 54 32 19 3
35 10 35 15 0 5 6 6 14 3 8 -3 24 -1 35 5 13 7 22 8 26 1 3 -5 11 -10 17 -10
6 0 6 6 -2 15 -7 9 -9 19 -5 23 4 4 10 1 12 -5 7 -18 43 -16 43 2 0 13 4 14
21 4 15 -8 19 -8 15 0 -4 6 -1 11 8 11 8 0 18 -4 21 -10 3 -5 24 -10 45 -10
31 0 38 3 34 15 -4 10 -14 13 -29 9 -13 -3 -26 0 -30 7 -6 9 -2 11 13 7 12 -4
25 -2 28 3 8 14 24 10 24 -6 0 -8 5 -15 12 -15 7 0 22 -12 35 -26 12 -15 35
-27 50 -29 34 -2 63 -14 82 -33 7 -7 20 -11 29 -7 8 3 24 -5 36 -18 12 -13 43
-29 69 -35 l46 -12 70 70 c39 38 77 70 86 70 8 0 15 4 15 10 0 12 68 41 89 39
9 -1 25 2 35 6 11 5 37 4 60 -3 23 -6 45 -7 50 -2 5 5 17 -1 28 -13 l19 -22
-6 23 c-5 17 -2 22 14 22 11 0 23 -5 26 -10 3 -6 16 -8 29 -4 15 3 28 -2 40
-15 12 -14 26 -19 40 -15 16 4 31 -4 57 -30 18 -20 37 -36 41 -36 16 0 48 -35
48 -52 0 -23 20 -34 32 -17 7 10 7 7 3 -8 -4 -14 -2 -23 4 -23 6 0 11 -8 11
-17 0 -9 7 -25 17 -35 13 -15 14 -23 5 -43 -9 -19 -8 -23 2 -19 16 6 27 -38
19 -78 -3 -17 -1 -28 6 -28 8 0 7 -6 -1 -20 -10 -16 -10 -24 -1 -40 7 -10 9
-22 4 -24 -5 -3 -8 -46 -6 -96 1 -49 -2 -90 -7 -90 -4 0 -6 -11 -2 -25 7 -29
-10 -34 -25 -8 -5 10 -13 14 -17 10 -11 -11 10 -42 29 -42 9 0 19 -4 23 -8 4
-4 2 -7 -4 -7 -14 0 -16 -46 -3 -55 9 -5 9 -37 0 -70 -1 -5 1 -18 6 -28 10
-24 -1 -33 -20 -17 -12 10 -15 10 -15 -3 0 -8 8 -18 17 -21 11 -5 14 -10 6
-14 -14 -9 33 -112 52 -112 24 0 27 73 22 432 -5 376 -10 413 -67 513 -32 56
-118 143 -166 168 -92 47 -245 60 -354 28 -97 -27 -145 -56 -227 -133 -61 -57
-76 -68 -88 -58 -8 7 -15 18 -15 24 0 19 -102 112 -147 135 -102 51 -231 62
-346 31z m241 -92 c20 -20 14 -27 -13 -15 -14 7 -25 15 -25 20 0 11 25 8 38
-5z m57 -7 c3 -5 1 -12 -5 -16 -5 -3 -10 1 -10 9 0 18 6 21 15 7z m-755 -77
c0 -8 -4 -12 -10 -9 -5 3 -10 10 -10 16 0 5 5 9 10 9 6 0 10 -7 10 -16z m70
-29 c0 -8 -2 -15 -4 -15 -2 0 -6 7 -10 15 -3 8 -1 15 4 15 6 0 10 -7 10 -15z
m-55 -65 c3 -5 1 -10 -4 -10 -6 0 -11 5 -11 10 0 6 2 10 4 10 3 0 8 -4 11 -10z
m-3 -75 c3 -14 1 -25 -3 -25 -5 0 -9 3 -9 8 0 4 -3 18 -7 31 -4 16 -2 22 4 18
6 -4 13 -18 15 -32z m68 21 c0 -8 -4 -18 -10 -21 -5 -3 -10 3 -10 14 0 12 5
21 10 21 6 0 10 -6 10 -14z m56 -41 c5 -12 15 -14 40 -9 23 4 34 2 34 -6 0 -7
-8 -9 -19 -5 -12 3 -21 0 -25 -10 -7 -19 -26 -20 -26 0 0 8 -7 15 -15 15 -8 0
-15 -7 -15 -15 0 -8 5 -15 10 -15 6 0 10 -9 10 -20 0 -11 -4 -20 -10 -20 -5 0
-10 -7 -10 -15 0 -21 -18 -19 -22 3 -2 9 3 23 12 30 13 11 13 14 -4 27 -17 13
-17 15 -3 21 10 3 17 12 17 20 0 19 19 18 26 -1z m-56 -5 c0 -5 -2 -10 -4 -10
-3 0 -8 5 -11 10 -3 6 -1 10 4 10 6 0 11 -4 11 -10z"/>
<path d="M10079 1552 c-82 -18 -226 -79 -233 -98 -3 -7 4 -14 15 -17 13 -4 19
0 19 13 0 12 13 21 48 30 26 7 52 16 57 20 35 25 214 44 255 27 14 -6 28 -9
33 -9 4 1 24 -5 44 -13 20 -8 38 -13 41 -10 2 2 14 -2 26 -10 11 -8 30 -15 41
-15 37 0 165 -101 165 -130 0 -9 12 -23 26 -31 31 -16 74 -80 74 -108 0 -11 4
-22 9 -25 4 -3 11 -27 15 -53 4 -27 9 -59 12 -73 2 -14 4 -51 4 -83 0 -44 4
-59 16 -64 24 -9 34 15 34 82 0 115 -39 253 -96 340 -72 109 -140 160 -276
206 -114 39 -216 45 -329 21z"/>
<path d="M3470 1542 c-20 -6 -26 -16 -31 -52 -10 -71 -9 -1039 1 -1066 9 -23
12 -24 124 -24 63 0 117 4 120 8 3 5 6 255 7 556 2 491 0 549 -14 563 -18 18
-162 28 -207 15z"/>
<path d="M9788 1409 c-25 -27 -22 -32 7 -13 14 9 25 20 25 25 0 14 -13 9 -32
-12z"/>
<path d="M7870 1390 c0 -5 5 -10 10 -10 6 0 10 5 10 10 0 6 -4 10 -10 10 -5 0
-10 -4 -10 -10z"/>
<path d="M7980 1390 c0 -5 4 -10 9 -10 6 0 13 5 16 10 3 6 -1 10 -9 10 -9 0
-16 -4 -16 -10z"/>
<path d="M7795 1330 c3 -5 8 -10 11 -10 2 0 4 5 4 10 0 6 -5 10 -11 10 -5 0
-7 -4 -4 -10z"/>
<path d="M2536 1209 c-49 -12 -56 -18 -331 -283 -409 -393 -446 -430 -467
-464 -27 -44 -19 -51 107 -92 93 -31 110 -33 245 -34 122 -1 159 3 235 23 100
26 197 71 283 131 77 53 78 54 155 143 112 130 181 284 199 451 16 144 27 136
-206 135 -100 -1 -198 -5 -220 -10z"/>
<path d="M8537 1174 c-3 -3 -3 -12 0 -20 3 -8 -1 -14 -10 -14 -8 0 -18 6 -20
13 -3 6 -6 2 -6 -10 -1 -12 3 -23 8 -25 5 -1 6 -27 4 -55 -4 -32 -9 -50 -16
-46 -6 4 -8 -3 -3 -20 6 -25 -10 -76 -27 -88 -5 -4 -5 -15 2 -25 6 -11 11 -13
11 -6 0 6 5 12 11 12 8 0 8 -4 -1 -14 -13 -17 -35 -11 -69 18 l-24 21 6 -22
c3 -16 1 -23 -10 -23 -8 0 -11 -5 -7 -11 3 -6 17 -8 31 -4 21 5 24 3 18 -15
-5 -15 2 -32 20 -56 35 -45 29 -51 -14 -13 -53 46 -51 23 2 -26 46 -44 62 -73
32 -61 -18 6 -20 -15 -3 -32 6 -6 8 -15 4 -19 -4 -5 -15 1 -23 12 -15 20 -15
20 -10 -2 6 -27 -14 -31 -33 -8 -14 16 -40 20 -40 6 0 -5 6 -12 13 -14 7 -3 6
-6 -5 -6 -9 -1 -20 4 -23 9 -5 8 -11 8 -19 1 -7 -6 -16 -8 -19 -4 -4 3 -7 -5
-7 -19 0 -34 86 -105 114 -95 9 4 12 -1 9 -13 -3 -10 0 -21 6 -24 6 -4 11 0
11 8 0 9 5 16 11 16 6 0 9 -12 7 -27 -2 -22 1 -27 15 -25 19 3 24 -24 5 -31
-7 -3 4 -6 24 -6 31 -1 38 3 43 22 2 12 7 168 9 347 2 179 7 342 11 363 6 32
5 37 -12 37 -11 0 -22 -3 -26 -6z m-57 -364 c0 -11 -2 -20 -4 -20 -2 0 -6 9
-9 20 -3 11 -1 20 4 20 5 0 9 -9 9 -20z m-6 -205 c-4 -8 -10 -12 -15 -9 -11 6
-2 24 11 24 5 0 7 -7 4 -15z m-99 -5 c11 -17 -5 -32 -21 -19 -8 6 -14 15 -14
20 0 12 27 11 35 -1z m60 -18 c-7 -8 -35 7 -35 18 0 6 7 6 20 -2 10 -7 17 -14
15 -16z m-35 -32 c0 -5 -7 -10 -15 -10 -8 0 -15 5 -15 10 0 6 7 10 15 10 8 0
15 -4 15 -10z m34 -14 c-10 -8 -21 -12 -24 -10 -5 6 21 24 34 24 6 0 1 -6 -10
-14z"/>
<path d="M9853 1152 c-6 -4 -14 -23 -18 -43 -6 -33 -4 -38 27 -60 18 -13 45
-24 59 -25 15 -1 34 -4 43 -7 8 -3 18 -2 21 2 5 9 79 6 95 -4 5 -3 11 -1 15 4
9 16 66 8 60 -8 -5 -12 -3 -12 10 -1 18 15 28 17 161 24 53 3 100 8 105 12 5
3 9 0 9 -5 0 -6 7 -11 15 -11 8 0 15 5 15 10 0 7 6 7 20 0 11 -6 20 -7 20 -1
0 19 -38 21 -330 21 -330 0 -326 -1 -317 65 3 19 4 35 3 35 0 0 -6 -4 -13 -8z"/>
<path d="M9835 860 c-4 -6 -13 -9 -21 -6 -17 6 -17 1 -3 -26 8 -16 8 -22 -2
-28 -10 -7 -9 -14 5 -34 9 -15 14 -31 11 -36 -9 -14 13 -50 30 -50 8 0 15 -6
15 -13 0 -13 43 -41 65 -42 10 0 22 -9 68 -50 14 -13 28 -21 30 -19 2 2 28 -1
58 -7 70 -14 238 -14 252 0 13 13 30 15 23 3 -3 -5 10 -4 29 2 19 6 35 16 35
23 0 6 8 9 20 6 13 -4 20 0 20 10 0 15 3 15 110 4 21 -2 25 -7 23 -32 0 -17 1
-24 4 -17 6 14 33 16 33 2 0 -13 27 -13 35 0 7 12 -106 130 -124 130 -6 0 -14
-6 -17 -14 -3 -8 -22 -22 -42 -31 -20 -9 -55 -26 -77 -38 -33 -17 -57 -21
-140 -21 -225 0 -354 76 -405 239 -15 48 -25 61 -35 45z"/>
<path d="M8320 825 c0 -8 5 -15 10 -15 6 0 10 7 10 15 0 8 -4 15 -10 15 -5 0
-10 -7 -10 -15z"/>
<path d="M8370 820 c0 -5 5 -10 11 -10 5 0 7 5 4 10 -3 6 -8 10 -11 10 -2 0
-4 -4 -4 -10z"/>
<path d="M9160 821 c0 -5 5 -13 10 -16 6 -3 10 -2 10 4 0 5 -4 13 -10 16 -5 3
-10 2 -10 -4z"/>
<path d="M8350 780 c0 -5 5 -10 10 -10 6 0 10 5 10 10 0 6 -4 10 -10 10 -5 0
-10 -4 -10 -10z"/>
<path d="M8407 728 c18 -18 35 -29 39 -26 7 8 -45 57 -61 58 -5 0 5 -14 22
-32z"/>
<path d="M9250 750 c0 -5 5 -10 10 -10 6 0 10 5 10 10 0 6 -4 10 -10 10 -5 0
-10 -4 -10 -10z"/>
<path d="M8320 716 c0 -9 5 -16 10 -16 6 0 10 4 10 9 0 6 -4 13 -10 16 -5 3
-10 -1 -10 -9z"/>
<path d="M9210 710 c0 -5 5 -10 10 -10 6 0 10 5 10 10 0 6 -4 10 -10 10 -5 0
-10 -4 -10 -10z"/>
<path d="M9280 702 c0 -16 27 -45 33 -35 3 5 -3 17 -14 26 -10 9 -19 13 -19 9z"/>
<path d="M9240 681 c0 -5 5 -13 10 -16 6 -3 10 -2 10 4 0 5 -4 13 -10 16 -5 3
-10 2 -10 -4z"/>
<path d="M8410 660 c0 -5 5 -10 10 -10 6 0 10 5 10 10 0 6 -4 10 -10 10 -5 0
-10 -4 -10 -10z"/>
<path d="M9237 593 c-4 -3 -7 -11 -7 -17 0 -6 5 -5 12 2 6 6 9 14 7 17 -3 3
-9 2 -12 -2z"/>
<path d="M8331 522 c-1 -7 -5 -10 -11 -7 -14 9 -12 -29 3 -44 9 -11 9 -14 0
-18 -26 -10 5 -42 39 -41 18 1 27 3 21 5 -7 3 -13 11 -13 19 0 8 -4 22 -9 32
-5 9 -14 28 -19 42 -6 14 -11 19 -11 12z m29 -92 c0 -5 -2 -10 -4 -10 -3 0 -8
5 -11 10 -3 6 -1 10 4 10 6 0 11 -4 11 -10z"/>
<path d="M8370 480 c0 -13 37 -50 50 -50 15 0 12 12 -9 38 -20 23 -41 29 -41
12z"/>
<path d="M9300 450 c0 -5 5 -10 10 -10 6 0 10 5 10 10 0 6 -4 10 -10 10 -5 0
-10 -4 -10 -10z"/>
</g>
</svg>
